<svg xmlns="http://www.w3.org/2000/svg" width="32" height="32" viewBox="0 0 32 32">
  <rect width="32" height="32" rx="8" fill="#f1760a"/>
  <path d="M16 6c-1.5 0-2.8.8-3.5 2l-1.5 2.5c-.7 1.1-.7 2.5 0 3.6l1.5 2.5c.7 1.2 2 2 3.5 2s2.8-.8 3.5-2l1.5-2.5c.7-1.1.7-2.5 0-3.6l-1.5-2.5c-.7-1.2-2-2-3.5-2z" fill="white"/>
  <circle cx="14" cy="14" r="1" fill="#f1760a"/>
  <circle cx="18" cy="14" r="1" fill="#f1760a"/>
  <path d="M12 18c0 1 .8 1.8 1.8 1.8h4.4c1 0 1.8-.8 1.8-1.8" stroke="#f1760a" stroke-width="2" fill="none"/>
</svg>